# xmcd CD database file
# Copyright (C) 1993-1998 Ti Kan
#
# Track frame offsets:
# 182
# 18807
# 32160
# 56030
# 70632
# 90487
# 111225
# 131345
# 150275
# 170930
#
# Disc length: 2574 seconds
# Revision: 0
# Processed by: cddbd v1.4b41PL1 Copyright (c) Steve Scherf et al.
# Submitted via: CDSpectrumPro v3.3.331
#
DISCID=770a0c0a
DTITLE=Shante - The Bitch Is Back
DYEAR=1900
DGENRE=
TTITLE0=Intro
TTITLE1=Deadly Rymes (Featuring Kool G Rap)
TTITLE2=Big Mama
TTITLE3=Trick or Treat
TTITLE4=Gotta Be Free
TTITLE5=Dance to This
TTITLE6=Yes, Yes Y'all
TTITLE7=Straight Razor
TTITLE8=Shante Gets Wicked
TTITLE9=Brothers Ain't Shit
EXTD=
EXTT0=
EXTT1=
EXTT2=
EXTT3=
EXTT4=
EXTT5=
EXTT6=
EXTT7=
EXTT8=
EXTT9=
PLAYORDER=
